<svg xmlns="http://www.w3.org/2000/svg" viewBox="0 0 24 24" role="img">
  <title>GitHub</title>
  <path d="M12 1.5C6.2 1.5 1.5 6.2 1.5 12c0 4.6 3 8.5 7.1 9.9.5.1.7-.2.7-.5v-2c-2.9.6-3.5-1.2-3.5-1.2-.5-1.2-1.2-1.6-1.2-1.6-.9-.6.1-.6.1-.6 1.1.1 1.6 1.1 1.6 1.1.9 1.6 2.5 1.1 3.1.9.1-.7.4-1.1.7-1.4-2.3-.3-4.7-1.2-4.7-5.2 0-1.1.4-2.1 1.1-2.8-.1-.3-.5-1.4.1-2.8 0 0 .9-.3 2.9 1.1.8-.2 1.7-.3 2.6-.3s1.8.1 2.6.3c2-1.4 2.9-1.1 2.9-1.1.6 1.4.2 2.5.1 2.8.7.8 1.1 1.7 1.1 2.8 0 4-2.4 4.9-4.7 5.2.4.3.7 1 .7 2v2.8c0 .3.2.6.7.5 4.1-1.4 7.1-5.3 7.1-9.9 0-5.8-4.7-10.5-10.5-10.5Z"/>
</svg>
