<?xml version="1.0" encoding="utf-8"?>
<svg xmlns="http://www.w3.org/2000/svg" xml:space="preserve" viewBox="0 0 226 63">
  <path fill="#1D1D1B" d="M74.08 20.63v-9.85h4.71a1.89 1.89 0 0 1 1.4.6c.2.18.35.4.45.64s.15.5.15.77v2.48a2 2 0 0 1-2 2h-3.37v3.35a.62.62 0 0 1-.19.47.63.63 0 0 1-.47.2.67.67 0 0 1-.63-.4.63.63 0 0 1-.05-.26zm1.34-4.68h3.37a.63.63 0 0 0 .47-.2.62.62 0 0 0 .2-.46V12.8a.68.68 0 0 0-.67-.67h-3.37v3.8zm13.43-4.2 1.46 2.99a2.95 2.95 0 0 1 0 2.63l-1.46 2.96a1.63 1.63 0 0 1-1.58.97 1.8 1.8 0 0 1-1.6-.97l-1.47-2.96c-.2-.4-.3-.85-.29-1.3 0-.47.1-.92.3-1.33l1.47-2.98a1.66 1.66 0 0 1 1.59-.98 1.63 1.63 0 0 1 1.58.97zm-2.02.67-1.38 2.8a1.88 1.88 0 0 0 0 1.65l1.42 2.83a.4.4 0 0 0 .4.26.42.42 0 0 0 .39-.26l1.42-2.84a1.78 1.78 0 0 0 0-1.65l-1.4-2.79a.44.44 0 0 0-.41-.31c-.1 0-.2.03-.27.09a.5.5 0 0 0-.17.22zm6.95 8.88v-9.85a.67.67 0 0 1 .66-.67.67.67 0 0 1 .67.67v8.52h4.7a.66.66 0 0 1 .47.2.65.65 0 0 1 0 .92.66.66 0 0 1-.48.2h-6.02zm11.35-10.52h3.46a1.9 1.9 0 0 1 1.76 1.83.66.66 0 0 1-.2.48.62.62 0 0 1-.45.2.58.58 0 0 1-.46-.15c-.12-.18-.2-.37-.24-.58a.5.5 0 0 0-.51-.42h-3.3c-.15 0-.23.05-.23.16 0 .08.04.16.1.22l4.93 6.3a1.57 1.57 0 0 1 .25 1.55c-.07.18-.18.35-.32.48a1.32 1.32 0 0 1-.96.46h-3.58a1.66 1.66 0 0 1-1.24-.54 1.68 1.68 0 0 1-.53-1.2c0-.5.23-.74.7-.74a.65.65 0 0 1 .64.65.48.48 0 0 0 .32.46c.06.03.13.04.2.04h3.3c.15 0 .22-.06.22-.17a.3.3 0 0 0-.1-.2l-4.93-6.3a1.57 1.57 0 0 1-.23-1.57c.07-.18.18-.35.33-.49a1.44 1.44 0 0 1 1.07-.47zm8.34 9.85v-9.17a.67.67 0 0 1 .91-.63.65.65 0 0 1 .41.62v3.14l4.26-3.63a.73.73 0 0 1 .5-.18.6.6 0 0 1 .46.2.64.64 0 0 1 .14.72.6.6 0 0 1-.16.2l-4.82 4.1 4.82 4.18a.53.53 0 0 1 .2.43.7.7 0 0 1-.2.47.63.63 0 0 1-.47.22.73.73 0 0 1-.49-.19l-4.24-3.65v3.17a.64.64 0 0 1-.4.62.66.66 0 0 1-.72-.15.6.6 0 0 1-.2-.47zm14.78-8.88 1.46 2.99a2.95 2.95 0 0 1 0 2.63l-1.46 2.96a1.62 1.62 0 0 1-1.58.97 1.8 1.8 0 0 1-1.59-.97l-1.47-2.96c-.2-.4-.3-.85-.3-1.3 0-.47.1-.92.3-1.33l1.47-2.98a1.67 1.67 0 0 1 1.58-.98 1.62 1.62 0 0 1 1.59.97zm-2.03.67-1.37 2.8c-.12.25-.19.53-.2.81 0 .3.07.57.2.83l1.41 2.84a.4.4 0 0 0 .4.26.42.42 0 0 0 .4-.26l1.42-2.84a1.78 1.78 0 0 0 0-1.65l-1.4-2.79a.45.45 0 0 0-.42-.31.5.5 0 0 0-.44.31zM139.88 16v.58a.67.67 0 0 1-.2.48.62.62 0 0 1-.46.2h-5.35a.62.62 0 0 1-.47-.2.65.65 0 0 1-.2-.48V16a.68.68 0 0 1 .2-.47.65.65 0 0 1 .47-.2h5.36a.66.66 0 0 1 .6.4.6.6 0 0 1 .05.27zm3.8 3.29v-2.1a.65.65 0 0 1 .42-.62.67.67 0 0 1 .87.36c.03.08.05.17.05.25v2.13a.61.61 0 0 0 .2.46.68.68 0 0 0 .48.18h1.34a.67.67 0 0 0 .48-.19.62.62 0 0 0 .2-.47v-7.84a.66.66 0 0 1 .65-.67c.09 0 .18.02.26.06.08.04.16.1.22.16a.66.66 0 0 1 .2.48v7.81a1.87 1.87 0 0 1-.62 1.42 1.96 1.96 0 0 1-1.4.59h-1.34a2.02 2.02 0 0 1-2.01-2.01zm9.25 1.08 2.68-9.1a.65.65 0 0 1 .67-.49.58.58 0 0 1 .62.42l2.65 9.24c.02.06.03.13.03.2a.62.62 0 0 1-.2.46.58.58 0 0 1-.43.2.62.62 0 0 1-.66-.49l-.52-1.8h-3.05l-.58 1.94a.39.39 0 0 1-.2.24.69.69 0 0 1-.38.11.65.65 0 0 1-.48-.2.67.67 0 0 1-.2-.48c0-.09.02-.17.05-.25zm3.34-6.51-1.14 3.8h2.25l-1.11-3.8zm6.47 6.77v-9.85h4.72a1.91 1.91 0 0 1 1.4.6 1.95 1.95 0 0 1 .59 1.41v2.48a2 2 0 0 1-2 2h-3.37v3.35a.62.62 0 0 1-.19.47.64.64 0 0 1-.47.2.66.66 0 0 1-.48-.2.62.62 0 0 1-.2-.46zm1.34-4.68h3.37a.63.63 0 0 0 .47-.2.62.62 0 0 0 .2-.46V12.8a.67.67 0 0 0-.67-.67h-3.37v3.8zm13.43-4.2 1.46 2.99a2.95 2.95 0 0 1 0 2.63l-1.46 2.96a1.61 1.61 0 0 1-1.58.97 1.8 1.8 0 0 1-1.6-.97l-1.46-2.96c-.2-.4-.3-.85-.3-1.3 0-.47.1-.92.3-1.33l1.47-2.99a1.66 1.66 0 0 1 1.59-.97 1.61 1.61 0 0 1 1.58.97zm-2.03.67-1.37 2.8a1.88 1.88 0 0 0 0 1.65l1.42 2.83a.4.4 0 0 0 .4.26.4.4 0 0 0 .23-.07.41.41 0 0 0 .15-.2l1.43-2.83a1.8 1.8 0 0 0 0-1.65l-1.4-2.79a.44.44 0 0 0-.41-.31.49.49 0 0 0-.45.31zm13.65-.96v9.84h-1.79l-3.56-8.17v7.5a.65.65 0 0 1-.67.66.67.67 0 0 1-.66-.66v-9.85h1.76l3.59 8.15v-7.47a.69.69 0 0 1 .93-.63c.08.04.16.09.22.15a.66.66 0 0 1 .18.48zm-1.94-3.53a.45.45 0 0 1 .5-.02c.07.05.13.11.17.18.1.17.16.36.16.56a.79.79 0 0 1-.33.73l-2.14 1.33a.47.47 0 0 1-.67-.17 1 1 0 0 1-.16-.56.77.77 0 0 1 .33-.72l2.14-1.33zm6.6 2.85h3.46a1.9 1.9 0 0 1 1.76 1.83.66.66 0 0 1-.2.48.61.61 0 0 1-.44.2.57.57 0 0 1-.47-.15c-.12-.18-.2-.37-.24-.58a.5.5 0 0 0-.52-.42h-3.28c-.16 0-.24.05-.24.16 0 .08.04.16.1.22l4.94 6.3c.23.28.35.62.36.98a1.46 1.46 0 0 1-.44 1.04 1.28 1.28 0 0 1-.95.46h-3.6a1.82 1.82 0 0 1-1.76-1.74c0-.5.24-.74.7-.74a.63.63 0 0 1 .46.2.6.6 0 0 1 .19.45l.03.2.12.15a.5.5 0 0 0 .36.15h3.31c.14 0 .21-.06.21-.17a.33.33 0 0 0-.1-.2l-4.93-6.31a1.57 1.57 0 0 1-.23-1.56c.07-.19.19-.35.33-.5a1.43 1.43 0 0 1 1.07-.45zm8.33 9.85v-9.17a.67.67 0 0 1 1.14-.48.67.67 0 0 1 .2.47v3.14l4.25-3.63a.72.72 0 0 1 .5-.18.63.63 0 0 1 .47.2c.12.13.18.3.18.47a.58.58 0 0 1-.21.46l-4.82 4.1 4.82 4.17a.53.53 0 0 1 .2.43c0 .17-.07.34-.2.47a.61.61 0 0 1-.47.22.71.71 0 0 1-.49-.19l-4.24-3.65v3.17a.66.66 0 0 1-.66.62.67.67 0 0 1-.67-.62zm9.9-.26 2.69-9.1a.64.64 0 0 1 .67-.49.58.58 0 0 1 .62.42l2.65 9.24c.02.06.03.13.03.2a.65.65 0 0 1-.2.46.58.58 0 0 1-.42.2.62.62 0 0 1-.67-.49l-.53-1.8h-3.04l-.57 1.93c-.04.1-.1.2-.2.24a.7.7 0 0 1-.39.12.6.6 0 0 1-.48-.2.66.66 0 0 1-.2-.48c.01-.09.02-.17.05-.25zm3.35-6.51-1.14 3.8h2.25l-1.11-3.8zM74.11 37.43l2.68-9.1a.65.65 0 0 1 .67-.49.58.58 0 0 1 .62.42l2.65 9.23a.67.67 0 0 1-.35.81.58.58 0 0 1-.24.05.62.62 0 0 1-.66-.48l-.53-1.8h-3.04L75.33 38a.4.4 0 0 1-.2.24.7.7 0 0 1-.65.07.67.67 0 0 1-.41-.64c0-.08.02-.16.04-.24zm3.34-6.51-1.13 3.8h2.24l-1.1-3.8zm6.46 6.77v-9.17a.67.67 0 0 1 1.14-.48.65.65 0 0 1 .19.47v3.14l4.26-3.63a.71.71 0 0 1 .5-.18.61.61 0 0 1 .47.2c.11.13.18.3.18.47a.6.6 0 0 1-.22.46l-4.82 4.1 4.83 4.17a.52.52 0 0 1 .2.42.7.7 0 0 1-.2.48.62.62 0 0 1-.48.22.72.72 0 0 1-.48-.19l-4.24-3.65v3.17a.65.65 0 0 1-.2.47.65.65 0 0 1-.47.2.67.67 0 0 1-.6-.41.62.62 0 0 1-.06-.26zm9.9-.26 2.68-9.1a.64.64 0 0 1 .67-.49.58.58 0 0 1 .62.42l2.66 9.23a.65.65 0 0 1-.16.67.6.6 0 0 1-.44.2.62.62 0 0 1-.66-.49l-.53-1.8h-3.04L95.03 38c-.03.1-.1.19-.2.24a.72.72 0 0 1-.64.07.64.64 0 0 1-.22-.15.68.68 0 0 1-.2-.48c0-.09.02-.17.04-.25zm3.35-6.51-1.14 3.8h2.24l-1.1-3.8zm7.12-3.08h2.62c.36.01.71.13 1 .34.3.19.55.46.72.78l1.31 2.66a3.09 3.09 0 0 1-.02 3l-1.32 2.62a1.98 1.98 0 0 1-1.8 1.12h-2.53a.62.62 0 0 1-.47-.2.64.64 0 0 1-.2-.46.66.66 0 0 1 .2-.48.64.64 0 0 1 .47-.2h.7v-7.84h-.68a.62.62 0 0 1-.48-.2.68.68 0 0 1 0-.94.67.67 0 0 1 .22-.15.67.67 0 0 1 .26-.05zm2 1.34v7.85h.47a.7.7 0 0 0 .66-.44l1.32-2.61c.14-.27.22-.56.24-.86 0-.29-.06-.57-.2-.83l-1.36-2.7a.72.72 0 0 0-.7-.4h-.42zm13.22 0h-4.7v3.24h2.03a.68.68 0 0 1 .47 1.15.65.65 0 0 1-.47.2h-2.02v3.26h4.71a.64.64 0 0 1 .47.2c.06.05.11.13.15.2.03.09.05.18.05.26a.62.62 0 0 1-.2.47.67.67 0 0 1-.49.2h-6.02V27.84h6.02a.7.7 0 0 1 .69.68.63.63 0 0 1-.2.47.68.68 0 0 1-.49.2zm6.5 2.8v-.35l-1.38-1.96v8.02a.67.67 0 0 1-1.33 0v-9.85h1.72l1.63 2.38 1.7-2.38h1.68v9.85a.63.63 0 0 1-.2.47.66.66 0 0 1-.48.2.62.62 0 0 1-.26-.06.62.62 0 0 1-.21-.14.65.65 0 0 1-.2-.47V29.7l-1.34 1.9v.37a.67.67 0 0 1-.92.62.62.62 0 0 1-.22-.14.65.65 0 0 1-.19-.48zm7.83-4.14h5.37a.64.64 0 0 1 .47.2.62.62 0 0 1 .2.47.66.66 0 0 1-.2.47.61.61 0 0 1-.46.2h-2.01v7.84h2a.68.68 0 0 1 .48.2.66.66 0 0 1 .19.47.62.62 0 0 1-.2.47.62.62 0 0 1-.46.2h-5.38a.66.66 0 0 1-.5-.18.67.67 0 0 1 .23-1.12.66.66 0 0 1 .27-.04h2.04V29.2h-2.04a.63.63 0 0 1-.47-.2.65.65 0 0 1-.2-.47.67.67 0 0 1 .41-.63.67.67 0 0 1 .26-.05zm9.23 9.59 2.68-9.1a.66.66 0 0 1 .67-.49.58.58 0 0 1 .62.42l2.65 9.23a.64.64 0 0 1-.15.67.59.59 0 0 1-.44.2.62.62 0 0 1-.66-.49l-.53-1.8h-3.04l-.58 1.94a.39.39 0 0 1-.2.23.7.7 0 0 1-.65.07.68.68 0 0 1-.41-.64c0-.08.02-.16.04-.24zm3.34-6.51-1.14 3.8h2.24l-1.1-3.8zm13.76-1.27v-1.8h6.7v1.82a.67.67 0 0 1-1.14.47c-.06-.06-.11-.14-.15-.22s-.05-.16-.05-.25v-.48h-1.34v8.5a.63.63 0 0 1-.2.47.66.66 0 0 1-.73.15.68.68 0 0 1-.42-.62v-8.5h-1.34v.46a.64.64 0 0 1-.2.47.66.66 0 0 1-1.13-.47zm15.9-.46h-4.69v3.23h2.02a.62.62 0 0 1 .47.2c.06.06.11.13.15.21a.65.65 0 0 1 0 .52.65.65 0 0 1-.16.22.64.64 0 0 1-.47.2h-2.01v3.26h4.71a.66.66 0 0 1 .62.4.66.66 0 0 1-.37.88.65.65 0 0 1-.26.05h-6.04V27.84h6.02a.64.64 0 0 1 .48.2.66.66 0 0 1 .15.74.64.64 0 0 1-.15.21.66.66 0 0 1-.48.2zm7.46 7.84h2.4a.67.67 0 0 1 .48.2.63.63 0 0 1 .2.46.61.61 0 0 1-.2.47.67.67 0 0 1-.48.2h-2.48a1.92 1.92 0 0 1-.98-.31 1.8 1.8 0 0 1-.7-.67l-1.56-2.97a2.99 2.99 0 0 1-.02-2.6l1.55-2.94c.17-.3.4-.54.7-.72.25-.2.57-.3.9-.31h2.62a.62.62 0 0 1 .47.2.65.65 0 0 1 .2.46.67.67 0 0 1-.2.48.61.61 0 0 1-.47.2h-2.53a.59.59 0 0 0-.51.38l-1.48 2.75c-.12.23-.18.5-.17.76 0 .29.06.57.19.83l1.4 2.7a.68.68 0 0 0 .67.43zm6.17.66v-9.18a.63.63 0 0 1 .2-.47.67.67 0 0 1 .72-.14.66.66 0 0 1 .41.6v3.92h4.05v-3.91a.64.64 0 0 1 .2-.47.67.67 0 0 1 .93 0 .66.66 0 0 1 .19.48v9.17a.63.63 0 0 1-.2.47.65.65 0 0 1-1.13-.47v-3.94h-4.03v3.94a.63.63 0 0 1-.2.47.68.68 0 0 1-.48.2.67.67 0 0 1-.66-.67zm16.58-9.17v9.84h-1.79l-3.58-8.17v7.5a.67.67 0 1 1-1.33 0v-9.85h1.76l3.6 8.15v-7.47a.69.69 0 0 1 .93-.63c.08.04.15.08.21.15a.65.65 0 0 1 .2.48zm3.8-.68h5.38a.63.63 0 0 1 .47.2c.06.06.11.13.15.21.03.08.05.17.05.26a.64.64 0 0 1-.2.47.62.62 0 0 1-.47.2h-2v7.85h2a.62.62 0 0 1 .47.19.62.62 0 0 1 .2.47.67.67 0 0 1-.67.66h-5.38a.62.62 0 0 1-.47-.2.64.64 0 0 1-.2-.47.65.65 0 0 1 .2-.46.66.66 0 0 1 .47-.2h2.04V29.2h-2.04a.62.62 0 0 1-.47-.2.65.65 0 0 1-.2-.47.67.67 0 0 1 .2-.48.61.61 0 0 1 .47-.2zm9.19 9.85v-9.17a.67.67 0 0 1 .92-.63.66.66 0 0 1 .4.62v3.14l4.26-3.63a.73.73 0 0 1 .5-.18.62.62 0 0 1 .47.2c.12.13.19.3.19.47a.6.6 0 0 1-.22.46l-4.8 4.1 4.82 4.17c.06.05.11.11.15.19.03.07.05.15.04.23a.7.7 0 0 1-.19.48.62.62 0 0 1-.48.21.74.74 0 0 1-.48-.18l-4.24-3.65v3.17a.65.65 0 0 1-.66.66.68.68 0 0 1-.67-.66h-.01zM74.13 54.49v-9.17a.66.66 0 0 1 .2-.49.66.66 0 0 1 1.02.1c.07.11.1.24.1.37v3.15l4.26-3.63a.71.71 0 0 1 .5-.18.61.61 0 0 1 .47.2.65.65 0 0 1 .13.73.59.59 0 0 1-.16.2l-4.82 4.1 4.83 4.16a.52.52 0 0 1 .2.43c0 .18-.08.35-.2.47a.63.63 0 0 1-.48.22.73.73 0 0 1-.48-.18l-4.24-3.66v3.17a.64.64 0 0 1-.2.48.62.62 0 0 1-.46.2.65.65 0 0 1-.47-.2.67.67 0 0 1-.2-.47zm14.78-8.88 1.46 2.98a2.98 2.98 0 0 1 0 2.64l-1.47 2.95a1.62 1.62 0 0 1-1.58.97c-.33 0-.67-.1-.95-.28-.27-.17-.5-.4-.64-.7l-1.46-2.93c-.2-.4-.3-.86-.29-1.31 0-.46.1-.91.3-1.32l1.46-2.99a1.67 1.67 0 0 1 1.6-.97 1.63 1.63 0 0 1 1.56.96zm-2.02.67-1.38 2.8a1.95 1.95 0 0 0 0 1.65l1.42 2.83a.4.4 0 0 0 .4.26.41.41 0 0 0 .39-.26l1.42-2.84a1.8 1.8 0 0 0 0-1.65l-1.39-2.79a.45.45 0 0 0-.42-.3.5.5 0 0 0-.44.3zm9.63 2.48v-.34l-1.38-1.96v8.02a.66.66 0 0 1-.2.47.67.67 0 0 1-.92 0 .64.64 0 0 1-.2-.46v-9.85h1.72l1.64 2.38 1.68-2.38h1.69v9.85a.63.63 0 0 1-.2.47.67.67 0 0 1-.48.2.61.61 0 0 1-.47-.2.64.64 0 0 1-.2-.47v-8l-1.34 1.9v.37a.66.66 0 1 1-1.33 0h-.01zm7.17 5.73v-9.85h4.72a1.91 1.91 0 0 1 1.4.6 1.93 1.93 0 0 1 .6 1.4v2.49a2 2 0 0 1-2 2h-3.38v3.34a.65.65 0 0 1-.2.47.65.65 0 0 1-.47.2.67.67 0 0 1-.48-.2.65.65 0 0 1-.19-.45zm1.35-4.69h3.37a.64.64 0 0 0 .46-.2.63.63 0 0 0 .2-.46v-2.48a.62.62 0 0 0-.2-.47.64.64 0 0 0-.46-.2h-3.38v3.81zm8.49 3.36v-7.84a.68.68 0 0 1 .4-.63.65.65 0 0 1 .72.15.61.61 0 0 1 .2.47v7.85a.62.62 0 0 0 .2.46.62.62 0 0 0 .47.19h2.72a.65.65 0 0 0 .47-.2.62.62 0 0 0 .2-.45v-7.84a.66.66 0 1 1 1.31 0v7.82a1.93 1.93 0 0 1-.59 1.42 1.9 1.9 0 0 1-1.4.59h-2.72a2 2 0 0 1-2-2h.02zm9.85-6.71v-1.8h6.7v1.81a.62.62 0 0 1-.19.47.62.62 0 0 1-.47.2.66.66 0 0 1-.47-.2.63.63 0 0 1-.2-.46v-.5h-1.35v8.5a.67.67 0 0 1-.67.67.67.67 0 0 1-.68-.65v-8.52h-1.35v.47c0 .13-.03.26-.1.37a.67.67 0 0 1-1.03.1.65.65 0 0 1-.19-.46zm15.89-.48h-4.7v3.24h2.03a.68.68 0 0 1 .62.92.64.64 0 0 1-.15.22.62.62 0 0 1-.47.2h-2.03v3.26h4.72a.66.66 0 0 1 .46 1.15.65.65 0 0 1-.48.2h-6.03V44.64h6.02a.64.64 0 0 1 .48.2.64.64 0 0 1 .2.48.61.61 0 0 1-.2.46.64.64 0 0 1-.47.2zm3.84 8.52v-9.85h4.7a1.9 1.9 0 0 1 1.4.6 1.92 1.92 0 0 1 .6 1.4v.77a1.93 1.93 0 0 1-.6 1.42 1.9 1.9 0 0 1-1.4.58h-.84l2.7 4.67c.08.13.12.27.13.42a.63.63 0 0 1-.2.46c-.13.12-.3.19-.48.19a.65.65 0 0 1-.6-.35l-3.1-5.39h-.96v5.08a.62.62 0 0 1-.2.47.68.68 0 0 1-.95 0 .65.65 0 0 1-.2-.47zm1.33-6.4h3.37a.67.67 0 0 0 .66-.67v-.78a.62.62 0 0 0-.2-.46.63.63 0 0 0-.46-.2h-3.37v2.1zm13.43-2.48 1.46 2.98a2.98 2.98 0 0 1 0 2.64l-1.47 2.95a1.62 1.62 0 0 1-1.58.97 1.72 1.72 0 0 1-1.57-.97l-1.49-2.94c-.2-.4-.3-.86-.3-1.31 0-.46.1-.91.3-1.32l1.47-2.99a1.67 1.67 0 0 1 1.6-.97 1.63 1.63 0 0 1 1.58.96zm-2.03.67-1.38 2.8a1.91 1.91 0 0 0 0 1.65l1.42 2.83a.4.4 0 0 0 .4.26.41.41 0 0 0 .39-.27l1.42-2.83c.13-.25.2-.54.2-.83 0-.28-.06-.57-.2-.82l-1.39-2.79a.45.45 0 0 0-.42-.3.49.49 0 0 0-.44.3zm10.97 2.48v4.42l.39.65h.56l.4-.66v-7.85c0-.14.04-.27.1-.38a.67.67 0 0 1 1.05-.1.64.64 0 0 1 .2.46v8.06a.93.93 0 0 1-.17.42l-.62 1.02a.62.62 0 0 1-.58.34h-1.24a.78.78 0 0 0-1.49 0h-1.17a.8.8 0 0 1-.73-.37l-.57-.95a.9.9 0 0 1-.16-.46V45.3a.67.67 0 0 1 .42-.63.67.67 0 0 1 .26-.05.6.6 0 0 1 .46.2c.13.13.2.3.2.48v7.87l.38.62h.57l.42-.66v-4.37a.64.64 0 0 1 .2-.47.63.63 0 0 1 .47-.2.62.62 0 0 1 .46.2.63.63 0 0 1 .2.47zm9.87 1.34v4.39a.63.63 0 0 1-.2.47.64.64 0 0 1-.46.19.67.67 0 0 1-.64-.4.61.61 0 0 1-.05-.26V50.1l-2.67-3.39v-1.4a.68.68 0 0 1 .41-.63.65.65 0 0 1 .52 0c.08.03.15.08.21.14a.64.64 0 0 1 .2.48v.93l2 2.57 2.02-2.56v-.93a.68.68 0 0 1 .67-.68.66.66 0 0 1 .66.68v1.4l-2.67 3.38zm9.46 3.72h2.4a.64.64 0 0 1 .48.2c.06.06.1.13.14.2a.65.65 0 0 1-.14.73.64.64 0 0 1-.48.19h-2.48a1.9 1.9 0 0 1-.98-.31 1.8 1.8 0 0 1-.7-.67l-1.55-2.97c-.2-.4-.31-.86-.32-1.31 0-.45.1-.9.31-1.3l1.55-2.93c.17-.3.4-.54.7-.72.26-.2.57-.3.9-.31h2.62a.67.67 0 0 1 .62.92.65.65 0 0 1-.15.22.61.61 0 0 1-.47.2h-2.53a.58.58 0 0 0-.51.38l-1.47 2.76c-.12.24-.18.5-.17.77-.01.29.05.57.18.83l1.41 2.7a.67.67 0 0 0 .64.42zm6.17.67V45.3a.66.66 0 0 1 .8-.65c.12.03.24.09.33.18a.64.64 0 0 1 .2.47v3.92h4.06V45.3a.66.66 0 0 1 .79-.65.66.66 0 0 1 .53.67v9.17a.62.62 0 0 1-.2.46.66.66 0 0 1-.93 0 .65.65 0 0 1-.19-.47v-3.94h-4.03v3.95a.63.63 0 0 1-.2.46.67.67 0 0 1-.94 0 .65.65 0 0 1-.22-.46zM7.6 20.34c-.22.14-.43.43-.8.33-.11-.59-.54-.37-.76-.4 0-.13 0-.25.04-.37l.98-.1v-1.46c-1.1-.04-2.15-.07-3.17-.07v-.34l2.22-.1.93-.11c0-.3.04-.55.04-.84.36 0 .71-.15.98-.4 0-.1 0-.1-2.99-.1 0-.4 0-.4.08-.4 1.3-.09 2.58-.12 3.9-.2.18.16.43.26.32.66-.76.15-1.05.55-1.64.99v.25c.66 0 1.39 0 2.11.04.33-.3 1.28-.73 1.28.3l-1.9.23c0 .07 0 .07-1.49.07v2l-.13.02zm-2.98-5.75c-.07 0-.15 0-.15-.22h-.29c-.1.55-.3 1.07-.58 1.55l.11.31.5-.1c.12-.34.25-.67.4-1 1.8-.06 3.58-.1 5.32-.14l-.22.84c.22 0 .22 0 1.31-.54-.36-1.76-1.63-.37-2.14-.88.4-.51 1.02-.93 1.09-1.16-.23-.22-.5-.37-.8-.44-.33.58-.55 1.16-.84 1.75l-3.71.03zm.76-.08c-.32-.76-.65-1.05-.76-1.34a.2.2 0 0 1 .14-.11c.55.14 1.17.4 1.06 1.45h-.44zm1.82-.32c-.62 0-.91-1.31-.93-1.5.55.07 1.35.33 1.16 1.46a.4.4 0 0 0-.23.04zM2.98 24.46c0 .03-2.55.03-2.84.03a1.43 1.43 0 0 1-.03-.36c.94-.08 1.86-.11 2.79-.15l.1-2.3c.25.02.5.04.74.08-.11.4-.11.4-.11 2.22.83.07 1.67.07 2.5 0 .09-.13.2-.24.32-.32.3 0 .43.07.93.43-.04.1-.07.19-.07.3-1.1.03-2.22.1-3.32.14.55 1.96 1.35 2.79 3.32 3.93v.22c-2.14.85-3.16-2.4-3.66-3.53-.62 2-1.49 3.49-3.63 4.15.18-.66.98-.99 1.63-1.46a7.01 7.01 0 0 0 1.33-3.38zm-1.4 15.56c-.07-.99-.1-2-.1-2.99a1.6 1.6 0 0 0-.12-.22 55.7 55.7 0 0 0-1.3 1.6c0-1.16.9-2.18 1.23-3.23-.4-.04-.84-.04-1.27-.04v-.34a9 9 0 0 1 1.42-.1v-1.17c-.44.07-.92.1-1.39.18a.45.45 0 0 1-.03-.22c.87-.55 2.17-1.6 3.34-.93v.37c-.43.1-.87.25-1.27.36-.03.44-.03.87-.03 1.35.47 0 .5-.31.94-.33.2.17.4.33.62.47v.22c-.54.07-1.06.15-1.53.18.04.18.04.33.08.47.62.31.98.15.98 1.17a2.97 2.97 0 0 0-.5-.08c-.32-.43-.32-.32-.6-.4 0 1.17 0 2.33.04 3.54a2 2 0 0 0-.5.14zm3.93-.11c.15-.08.33-.15.51-.22l.11-2.58c.4-.11.8-.22 1.24-.37 0-.73-.25-.77-.58-.83-.1.16-.17.35-.22.54H6.1c0-1.1-.29-3.46.15-3.93v-.36c-.3-.04-.58-.04-.84-.08v4.58c-1.02.22-2.1.22-2.84.69 0 .09.03.18.08.25.4.04.4.04 2.48-.4 0-.1 0-.1.4-.1v2.81zM3.62 35c.26.07.33 1.16 1.31 1.34-.11-1.2-.11-.98-.98-1.64a.81.81 0 0 0-.33.08V35zm1.02-.77c-.4-.58-.87-1.02-.87-1.53.54.08 1.38.33 1.24 1.42l-.37.11zM2.97 48.27H6v-5.14H3.1c-.01-.13 0-.26.03-.4 1.24-.03 2.48-.03 3.75-.07.72-.09 1.44-.23 2.14-.44.11.08.65.26.51.8-.2 0-.41.01-.62.04l-2.17.11v4.96H8.9c.55-.43.55-.58 1.38 0-.03.36-.03.36-.14.44l-5.17.11c-.69-.04-1.34-.04-2-.04v-.37zM22.2 62.2v-7.32c.28.03.56.08.83.15 0 .33-.21.73-.14 1.49l.87.55c0 .26.03.53.07.8h-.28a1.53 1.53 0 0 0-.77-.74c0 .22.04.44.04.7-.08 0-.08 4.54 0 4.54l-.12.44c-.14.04-.28.06-.43.07a3.27 3.27 0 0 1-.07-.69zm-.88-3.02c.88-.44.58-1.17.58-1.9l-.3-.03c-.08.65-.4 1.05-.4 1.82l.14.1h-.02zm2.22-1.31c-.04.16-.07.34-.07.5 1.7-.03 3.46-.03 5.2-.07 0-.29 0-.54-.22-.62-.72 0-1.49.04-2.17.08v-.3l1.97-.1v-.48c-.73-.43-1.46-.04-1.93 0a1.86 1.86 0 0 1-.04-.47c.77-.04 1.53-.04 2.26-.07a.64.64 0 0 0-.26-.7c-.87.08-1.34.26-2 .26.04-.31.11-.62.22-.9-.98-.23-.95-.12-.95.82-.65.08-1.27.12-1.89.22v.33c.62 0 1.24.04 1.9.08v.4c-.15.1-.15.1-1.46.18a.58.58 0 0 0-.04.25c.48.17.99.23 1.5.18-.03.1-.05.2-.04.3l-1.68.1h-.3zm.77 3.72v-2.95c.86.1 1.74.17 2.62.18.29-.22.47-.25.98.15 0 .12 0 .24.04.36-.12.04-.15.11-.22.15a87.89 87.89 0 0 0-.15 3.13.7.7 0 0 1-.65.25c-.22-.58-.51-.4-.73-.47-.01-.1 0-.2.03-.3.24-.04.49-.08.73-.1h.14v-.95c-2.17 0-2.17 0-2.17.1a7.6 7.6 0 0 1-.14 1.76l-.51.1c0-.5 0-.97.04-1.41h-.02zm2.58-1.9c.03-.07.03-.17.07-.25-.65-.04-1.31-.04-1.96-.04-.07 0-.07 0-.07.4 1.96 0 1.96 0 1.96-.1zm.07.51H25.1c-.07.07-.13.14-.18.22a.45.45 0 0 0-.14.22h2.32v-.44h-.14zm7.35.36v-.18h1.42v-.15c-.04-1.89-.04-1.89-.12-1.92-.4.55-.76 1.09-1.12 1.63-.23.2-.44.4-.62.62-.45.44-.95.82-1.5 1.13 0-.9.88-1.31 1.43-1.89l1.42-2.15c.1 0 .1 0 .1-.4-1.96 0-1.96 0-1.96.11-.62-.04-.62-.04-.84-.14v-.26c.93-.07 1.93-.11 2.92-.15.09-.03.19-.04.29-.03 0-.58.03-1.17.07-1.75.47 0 .47 0 .69.15v1.56c.75.07 1.5.07 2.26 0 .36-.37 1.34-.44 1.12.47-1.05 0-2.1.08-3.13.15.84 1.55 1.55 2.17 3.35 3.2 0 .1 0 .2.04.3-1.02.54-1.28-.04-1.78-.4-.26-.23-.51-.48-.77-.7-.33-.55-.65-1.05-1.02-1.55-.03-.07-.07-.1-.1-.18 0 .73 0 1.5.03 2.22h.54a.6.6 0 0 1 1.1.44l-1.68.22c0 .47.15 1.88-.62 1.96l-.1-1.96-1.39-.11a.53.53 0 0 1-.03-.24zm16.98-6.5c-.4-2.07.03-4.58-.15-6.62-.18-.07-.31-.15-.44-.18a.8.8 0 0 1-.03-.26c.43 0 .65-.14 1.24.3-.07.76-.07 1.48-.11 2.28.62.12 2.94.55 2.7 1.93h-.48c-.91-.94-1.31-1.05-2.15-1.41-.36.21-.14 3.05-.14 3.89-.15 0-.3.03-.44.07zm3.05-4.99c-.87-.94-.87-.94-.9-1.16.42.02.83.15 1.2.36.03.27.08.54.14.8h-.44zm.98-.62c-.36-.33-.69-.69-1.05-1.02.87-.1 1.24-.07 1.38 1.02h-.32zm.3-3.84c-.8-.58-.85-.95-.92-1.45.26 0 .37.07.62.36 1.57 0 4.4-2.84 5.6-3.9h.3c-.3 1.13-4.59 4.66-5.6 5zm.32-3.93c-.33-.76-.66-1.24-1.1-1.45a1.47 1.47 0 0 1-.07-.4c.77.18 1.82.4 1.64 1.74l-.47.11zm1.03-3.92c0-.09.01-.17.04-.25 1.53-1.2 3.1-2.52 3.72-4.4-1.02.06-4.84 1.16-4.52-.52 1.53 1.02 4.15-.94 5.61.22-.03.12-.04.24-.04.36a.54.54 0 0 0-.32.15c-1.08 1.87-2.42 3.75-4.49 4.44zm.24-6c-.54-.44-.47-.7-.47-.99.99.3 2.73.18 4 0 .18.05.36.12.51.22l.11.47c-1.39-.03-2.78.06-4.15.3zm.38-9.74c-.07-.18-.47-.47-.47-.62.33 0 1.16-.18 1.16.7a.6.6 0 0 0-.14.1c0 .95 0 1.93.04 2.91-.04 1.93.07 2.37 0 3.2-.16.03-.3.08-.44.15v-6.44h-.15zM43.17 59.4v-6.88c.98.51 3.49-.32 4.18.37-.1.98-.1.98-.1 5.86-.11.14-.11.14-.52.21-.06-.22-.1-.45-.14-.69h-2.73c-.11.36-.2.72-.25 1.1-.15-.02-.3 0-.44.03zm3.4-4.26v-1.78a18.3 18.3 0 0 0-2.78 0c-.04.62-.04 1.2-.04 1.78h2.83zM43.8 57.8c.95-.07 1.86-.1 2.84-.15-.04-.65-.04-1.3-.04-1.96-.94 0-1.89 0-2.84.04 0 .69 0 1.38.04 2.07zM16.8 53.2c-.18.05-.35.12-.5.22-.2-.24-.47-.4-.77-.48a.92.92 0 0 1-.07-.3c.28-.05.54-.12.83-.16.11 0 .11 0 .11-1.45h-1.49v.1c-.07.8-.07 1.59 0 2.38.62 0 1.42.1 2.17-.08.1.07.22.13.33.18 0 .77-.55 1.53-.84 2.26a2 2 0 0 0 1.27.84c-.08.15-.14.3-.18.47-.87.3-1.27-.62-1.64-.62-.4.47-1.2 1.27-1.78 1.27-.04-.87-.04-1.7-.04-2.54.08 0 .08 0 .08-.62-.54.07-1.13.1-1.64.21h-.22a4.5 4.5 0 0 0-.03.73h.65c.22-.43.88-.31 1.02.4-.54.07-1.13.11-1.67.22-.04 1.53-.04 1.53-.15 1.71-.16 0-.32 0-.47.03a28.6 28.6 0 0 1-.07-1.74c-.44-.08-.87-.11-1.28-.15 0-.15.03-.3.07-.44h1.22v-.76c-.47-.03-.93-.07-1.38-.07v-.33c.24-.07.48-.12.73-.14.02-.42-.08-.84-.3-1.2a4.36 4.36 0 0 0-.65-.08v-.36c.55-.04 1.09-.07 1.6-.07v-.7h-1.24c0-.17 0-.34.04-.5.4-.04.8-.04 1.2-.04v-1.16c.27 0 .54.03.8.1l-.11.99c.51-.04.51-.04.84-.26.21.11.43.26.65.37v.33c-.5.03-.98.1-1.49.18 0 .2.03.41.07.62.62 0 .88-.3 1.75 0v-2.11c.85.14 1.72.15 2.58.04.26.28.3 2.1 0 2.73v-.02zm-3.78 1.09c.29-.15.55-.36 1.05-.03.04-.4.07-.8.15-1.2-.77.1-.93.54-1.2 1.23zm-1.3.06c.23-.04.48-.07.72-.07.1-.36.25-.76.4-1.13a3.18 3.18 0 0 0-1.42-.04c0 .26.3.62.3 1.24zm4.25.99h.22c.1-.48.22-.95.36-1.39l-1.13.11c.07.37.07.37.55 1.28zm-1.06 1.63c1.24-1.35.66-1.35-.03-2.79 0 .95 0 1.89.03 2.8zM50.77 17.7c.04.21.09.42.15.62.91-.25 1.55-2.29 1.55-3.05.02 0-1.43 1.92-1.7 2.43zm5.83-3.96a.55.55 0 0 0-.03-.03h-.07l-.26.25-1.89.1c.04-.46.07-.9.15-1.34-.47-.25-.47-.25-1.2-.33v.26c.21.18.73.8.4 1.46-.95-.04-2.26 0-2.88-.19 0 1.53 1.64.7 2.91.7.04 1.05.07 2.07.15 3.12a.7.7 0 0 0-.04.3c-.22-.04-.22-.04-1.34-.66v.37c.33.29.73.47 1.01 1.24.18-.04.37-.05.55-.04.7-1.06.3-3.5.3-4.48.98 0 1.92 0 2.94.04-.1-.5-.19-.58-.38-.7h-.02c-.1-.04-.2-.06-.3-.07zm-1.38 1.63c-.03.1-.04.2-.03.29.54.33 1.2 1.45 1.55 2.37.13-.05.26-.07.4-.08-.1-1.42-.79-2.3-1.91-2.58zm2.48-3.17c-1.08-1.08-2.4.44-1.13 1.5.08 0 .17 0 .25.03l.1.07c.92-.47.78-.8.78-1.6zm-.44.77c-.14.15-.14.15-.66.22a1 1 0 0 1-.15-.67c.3-.31.3-.37.89-.07-.06.16-.09.34-.08.52zm-43.02.16-4.22-5.27 2.53-2.02a1.31 1.31 0 0 1 1-.28 1.33 1.33 0 0 1 .94.5l1.07 1.34a1.35 1.35 0 0 1 .13 1.52c-.09.16-.2.3-.35.4l-1.8 1.45 1.43 1.8a.45.45 0 0 1-.07.64.45.45 0 0 1-.34.1.43.43 0 0 1-.32-.18zm-1.29-3.1 1.8-1.44a.45.45 0 0 0 .18-.31.43.43 0 0 0-.1-.34L13.76 6.6a.43.43 0 0 0-.3-.17.44.44 0 0 0-.34.1l-1.8 1.44 1.63 2.05zm7.33-1.91-.5-1.35a.43.43 0 0 1 0-.35.45.45 0 0 1 .42-.27.46.46 0 0 1 .42.3l.5 1.36a.42.42 0 0 0 .24.25.45.45 0 0 0 .36 0l.87-.33a.47.47 0 0 0 .3-.41c0-.06 0-.12-.03-.18l-1.9-5.04a.45.45 0 0 1 .1-.49.43.43 0 0 1 .5-.07c.12.05.21.15.26.26l1.89 5.02a1.32 1.32 0 0 1-.05 1.06 1.34 1.34 0 0 1-.76.72l-.86.3a1.34 1.34 0 0 1-1.06-.03 1.34 1.34 0 0 1-.7-.75zm8.4-1.51L30.5.33a.44.44 0 0 1 .46-.34.4.4 0 0 1 .42.29l1.86 6.32a.46.46 0 0 1-.24.56.4.4 0 0 1-.17.04.43.43 0 0 1-.46-.33L32 5.64h-2.09l-.39 1.33a.27.27 0 0 1-.14.16.46.46 0 0 1-.26.08.45.45 0 0 1-.43-.29.48.48 0 0 1-.03-.17l.03-.16zm2.28-4.48-.77 2.62h1.55l-.78-2.63zm7.72.01.4-1.17 4.34 1.49-.4 1.18a.44.44 0 0 1-.23.26.43.43 0 0 1-.35.02.47.47 0 0 1-.3-.58l.11-.31-.87-.31-1.88 5.52a.46.46 0 0 1-.58.29.45.45 0 0 1-.33-.4c0-.06 0-.13.02-.18l1.88-5.53-.87-.3-.1.3a.46.46 0 0 1-.23.27.45.45 0 0 1-.35.02.46.46 0 0 1-.27-.23.44.44 0 0 1 .01-.34zm5.4 8.22 3.76-5.04a.45.45 0 0 1 .3-.19.43.43 0 0 1 .35.08.44.44 0 0 1 .18.31l-.01.18a.45.45 0 0 1-.08.16l-1.3 1.73 3.84-.25c.13 0 .25.03.35.11a.42.42 0 0 1 .17.31.47.47 0 0 1-.09.34.39.39 0 0 1-.31.16l-4.34.27.93 4.28v.16a.36.36 0 0 1-.07.15.48.48 0 0 1-.3.18.4.4 0 0 1-.36-.08.5.5 0 0 1-.19-.3l-.83-3.76-1.3 1.75a.46.46 0 0 1-.3.18.44.44 0 0 1-.34-.1.44.44 0 0 1-.07-.63z"/>
  <path fill="#E30613" d="M30.97 11.58A20.06 20.06 0 1 0 31 51.7a20.06 20.06 0 0 0-.04-40.12zM13.98 31.62a17.02 17.02 0 0 1 17-17.23 17 17 0 0 1 17 17.23h-34z"/>
</svg>
